<!DOCTYPE svg PUBLIC "-//W3C//DTD SVG 1.1//EN" "http://www.w3.org/Graphics/SVG/1.1/DTD/svg11.dtd">
<!-- Uploaded to: SVG Repo, www.svgrepo.com, Transformed by: SVG Repo Mixer Tools -->
<svg fill="#ffffff" height="800px" width="800px" version="1.1" id="Capa_1" xmlns="http://www.w3.org/2000/svg" xmlns:xlink="http://www.w3.org/1999/xlink" viewBox="0 0 360 360" xml:space="preserve" stroke="#ffffff">
<g id="SVGRepo_bgCarrier" stroke-width="0"/>
<g id="SVGRepo_tracerCarrier" stroke-linecap="round" stroke-linejoin="round"/>
<g id="SVGRepo_iconCarrier"> <g> <path d="M289.002,72.035H70.998c-11.468,0-20.768,9.299-20.768,20.76c0,10.231,7.408,18.735,17.146,20.447v228.846 c0,9.893,8.016,17.912,17.911,17.912h189.426c9.892,0,17.908-8.02,17.908-17.912V113.242c9.739-1.712,17.147-10.216,17.147-20.447 C309.77,81.334,300.469,72.035,289.002,72.035z M153.052,284.853c0,12.129-9.839,21.964-21.967,21.964 c-12.128,0-21.958-9.835-21.958-21.964V147.498c0-12.129,9.83-21.959,21.958-21.959c12.128,0,21.967,9.83,21.967,21.959V284.853z M250.873,284.853c0,12.129-9.83,21.964-21.958,21.964c-12.128,0-21.967-9.835-21.967-21.964V147.498 c0-12.129,9.839-21.959,21.967-21.959c12.128,0,21.958,9.83,21.958,21.959V284.853z"/> <path d="M70.998,60.855h218.004c11.467,0,20.767-9.299,20.767-20.76c0-11.469-9.301-20.768-20.767-20.768H247.13 C246.393,8.528,237.406,0,226.425,0h-92.849c-10.982,0-19.969,8.528-20.707,19.328H70.998c-11.468,0-20.768,9.299-20.768,20.768 C50.23,51.557,59.53,60.855,70.998,60.855z"/> </g> </g>
</svg>